<?xml version='1.0' encoding='utf-8'?>
<svg xmlns="http://www.w3.org/2000/svg" enable-background="new -178.514 -320.495 609.514 1046.3551" version="1.1" viewBox="-178.51 -320.5 609.51 1046.4"> <g transform="translate(161.35 -1034.8)"> <path d="m23.975 1624.3c-14.813 31.512-52.454 45.008-84.074 30.144s-45.244-52.459-30.431-83.971 52.455-45.008 84.074-30.144 45.244 52.459 30.431 83.971z" fill="#fff" stroke="#000" stroke-linecap="round" stroke-linejoin="round" stroke-width="1.5"/> <path d="m22.084 1623.4c2.1308-0.4202-27.711 53.744-80.949 29.017-53.298-24.758-31.208-81.752-30.221-80.122 32.974 74.171 70.765 80.949 111.17 51.103v0.0015z" fill="#666"/> <path d="m-30.133 1567c-14.813 31.512-52.454 45.008-84.074 30.144-31.619-14.864-45.244-52.459-30.431-83.971s52.455-45.008 84.074-30.144c31.62 14.864 45.244 52.459 30.431 83.971z" fill="#fff" stroke="#000" stroke-linecap="round" stroke-linejoin="round" stroke-width="1.5"/> <path d="m-32.024 1566.1c2.1308-0.4202-27.711 53.744-80.949 29.017-53.298-24.758-31.208-81.752-30.221-80.121 32.974 74.171 70.765 80.949 111.17 51.103v0.0014z" fill="#666"/> <g transform="matrix(.90499 .42542 -.42542 .90499 158.36 277.22)"> <path d="m310.31 1197c-1e-4 34.82-28.324 63.048-63.263 63.048s-63.263-28.227-63.263-63.048c0-34.82 28.324-63.048 63.263-63.048h0c34.939 0 63.263 28.228 63.263 63.048v0z" fill="#fff" stroke="#000" stroke-linecap="round" stroke-linejoin="round" stroke-width="1.5"/> <path d="m308.21 1197c1.7497-1.2867-2.214 60.427-60.912 60.696-58.77 0.2687-63.021-60.711-61.434-59.653 61.396 53.094 98.477 43.152 122.35-1.0448v0.0021z" fill="#666"/> </g> <path d="m-103.46 1423.7c-14.813 31.512-52.454 45.008-84.074 30.144s-45.244-52.459-30.431-83.971 52.455-45.008 84.074-30.144 45.244 52.459 30.431 83.971z" fill="#fff" stroke="#000" stroke-linecap="round" stroke-linejoin="round" stroke-width="1.5"/> <path d="m-105.35 1422.8c2.1308-0.4198-27.711 53.744-80.948 29.017-53.298-24.758-31.208-81.752-30.221-80.121 32.974 74.171 70.765 80.949 111.17 51.103l-1e-4 0.0014z" fill="#666"/> <g transform="matrix(.90499 .42542 -.42542 .90499 144.92 231.97)"> <path d="m248.91 1128.1c-1e-4 34.82-28.324 63.048-63.263 63.048s-63.263-28.227-63.263-63.048 28.324-63.048 63.263-63.048h0c34.939-1e-4 63.263 28.227 63.263 63.048v0z" fill="#fff" stroke="#000" stroke-linecap="round" stroke-linejoin="round" stroke-width="1.5"/> <path d="m246.82 1128.1c1.7497-1.2869-2.214 60.427-60.912 60.696-58.77 0.2687-63.021-60.71-61.434-59.653 61.396 53.094 98.477 43.152 122.35-1.0448v0.0022z" fill="#666"/> </g> <g transform="matrix(.90499 .42542 -.42542 .90499 133.61 208.63)"> <path d="m209.5 1096.3c-1e-4 34.82-28.324 63.048-63.263 63.048s-63.263-28.227-63.263-63.048c0-34.82 28.324-63.048 63.263-63.048h0c34.94 0 63.263 28.227 63.263 63.048v0z" fill="#fff" stroke="#000" stroke-linecap="round" stroke-linejoin="round" stroke-width="1.5"/> <path d="m207.41 1096.3c1.7497-1.2867-2.214 60.427-60.912 60.696-58.77 0.2687-63.021-60.711-61.434-59.653 61.396 53.094 98.477 43.152 122.35-1.0448v0.0021z" fill="#666"/> </g> <g transform="translate(-1.4142 7.0711)"> <path d="m67.17 1694.2c-14.813 31.512-52.455 45.008-84.074 30.144-31.62-14.864-45.244-52.459-30.431-83.971s52.454-45.008 84.074-30.144 45.244 52.459 30.431 83.971z" fill="#fff" stroke="#000" stroke-linecap="round" stroke-linejoin="round" stroke-width="1.5"/> <path d="m65.279 1693.3c2.1308-0.4202-27.711 53.744-80.949 29.017-53.298-24.758-31.208-81.752-30.221-80.121 32.974 74.171 70.765 80.949 111.17 51.103v0.0014z" fill="#666"/> </g> <g transform="matrix(.90499 .42542 -.42542 .90499 206.44 318.24)"> <path d="m429.46 1229.6c-1e-4 34.82-28.324 63.048-63.263 63.048s-63.263-28.227-63.263-63.048c0-34.82 28.324-63.048 63.263-63.048h1e-4c34.939 0 63.263 28.227 63.263 63.048v0z" fill="#fff" stroke="#000" stroke-linecap="round" stroke-linejoin="round" stroke-width="1.5"/> <path d="m427.36 1229.6c1.7497-1.2867-2.214 60.427-60.912 60.696-58.77 0.2687-63.021-60.711-61.434-59.653 61.396 53.094 98.477 43.152 122.35-1.0448v0.0022z" fill="#666"/> </g> <g transform="matrix(.90499 .42542 -.42542 .90499 184.52 287.83)"> <path d="m365.4 1194c-1e-4 34.82-28.324 63.048-63.263 63.048s-63.263-28.227-63.263-63.048 28.324-63.048 63.263-63.048h0c34.939 0 63.263 28.227 63.263 63.048v0z" fill="#fff" stroke="#000" stroke-linecap="round" stroke-linejoin="round" stroke-width="1.5"/> <path d="m363.31 1194c1.7497-1.2869-2.214 60.427-60.912 60.696-58.77 0.2687-63.021-60.71-61.434-59.653 61.396 53.094 98.477 43.152 122.35-1.0448v0.0022z" fill="#666"/> </g> <g transform="matrix(.90499 .42542 -.42542 .90499 173.21 264.5)"> <path d="m326 1162.2c-1e-4 34.82-28.324 63.048-63.263 63.048s-63.263-28.227-63.263-63.048c0-34.82 28.324-63.048 63.263-63.048h0c34.939 0 63.263 28.227 63.263 63.048v0z" fill="#fff" stroke="#000" stroke-linecap="round" stroke-linejoin="round" stroke-width="1.5"/> <path d="m323.9 1162.2c1.7497-1.2869-2.214 60.427-60.912 60.696-58.77 0.2687-63.021-60.711-61.434-59.653 61.396 53.094 98.477 43.152 122.35-1.0448v0.0022z" fill="#666"/> </g> <g transform="matrix(.90499 .42542 -.42542 .90499 221.29 297.73)"> <path d="m438.67 1181c-1e-4 34.82-28.324 63.048-63.263 63.048s-63.263-28.227-63.263-63.048c-1e-4 -34.82 28.324-63.048 63.263-63.048h1e-4c34.939 0 63.263 28.227 63.263 63.048v0z" fill="#fff" stroke="#000" stroke-linecap="round" stroke-linejoin="round" stroke-width="1.5"/> <path d="m436.57 1181c1.7497-1.2869-2.2141 60.427-60.912 60.696-58.77 0.2687-63.021-60.71-61.434-59.653 61.396 53.094 98.477 43.152 122.35-1.0448v0.0022z" fill="#666"/> </g> <g transform="matrix(.90499 .42542 -.42542 .90499 205.73 287.83)"> <path d="m402.92 1176.4c-1e-4 34.82-28.324 63.048-63.263 63.048s-63.263-28.227-63.263-63.048c0-34.82 28.324-63.048 63.263-63.048h1e-4c34.939-1e-4 63.263 28.227 63.263 63.048v0z" fill="#fff" stroke="#000" stroke-linecap="round" stroke-linejoin="round" stroke-width="1.5"/> <path d="m400.82 1176.4c1.7497-1.2867-2.214 60.427-60.912 60.696-58.77 0.2687-63.021-60.711-61.434-59.653 61.396 53.094 98.477 43.152 122.35-1.0448v0.0022z" fill="#666"/> </g> <g transform="matrix(.90499 .42542 -.42542 .90499 229.07 268.74)"> <path d="m428.33 1123.2c-1e-4 34.82-28.324 63.048-63.263 63.048s-63.263-28.227-63.263-63.048c-1e-4 -34.82 28.324-63.048 63.263-63.048h0c34.94 0 63.263 28.228 63.263 63.048v0z" fill="#fff" stroke="#000" stroke-linecap="round" stroke-linejoin="round" stroke-width="1.5"/> <path d="m426.23 1123.2c1.7497-1.2867-2.214 60.427-60.912 60.696-58.77 0.2687-63.021-60.711-61.434-59.653 61.396 53.094 98.477 43.152 122.35-1.0448v0.0021z" fill="#666"/> </g> <g transform="matrix(.90499 .42542 -.42542 .90499 234.73 231.97)"> <path d="m407.77 1053.5c-1e-4 34.82-28.324 63.048-63.263 63.048s-63.263-28.227-63.263-63.048c-1e-4 -34.82 28.324-63.048 63.263-63.048h0c34.94 0 63.263 28.228 63.263 63.048v0z" fill="#fff" stroke="#000" stroke-linecap="round" stroke-linejoin="round" stroke-width="1.5"/> <path d="m405.67 1053.5c1.7497-1.2869-2.214 60.427-60.912 60.696-58.77 0.2687-63.021-60.711-61.434-59.653 61.396 53.094 98.477 43.152 122.35-1.0448v0.0022z" fill="#666"/> </g> <g transform="matrix(.90499 .42542 -.42542 .90499 217.05 244.7)"> <path d="m387.08 1090.7c-1e-4 34.82-28.324 63.048-63.263 63.048s-63.263-28.227-63.263-63.048c0-34.82 28.324-63.048 63.263-63.048h1e-4c34.939-1e-4 63.263 28.228 63.263 63.048v0z" fill="#fff" stroke="#000" stroke-linecap="round" stroke-linejoin="round" stroke-width="1.5"/> <path d="m384.98 1090.7c1.7497-1.2867-2.214 60.427-60.912 60.696-58.77 0.2687-63.021-60.711-61.434-59.653 61.396 53.094 98.477 43.152 122.35-1.0448v0.0021z" fill="#666"/> </g> <g transform="matrix(.90499 .42542 -.42542 .90499 197.96 256.01)"> <path d="m362.72 1126.6c-1e-4 34.82-28.324 63.048-63.263 63.048s-63.263-28.227-63.263-63.048 28.324-63.048 63.263-63.048h0c34.939 0 63.263 28.227 63.263 63.048v0z" fill="#fff" stroke="#000" stroke-linecap="round" stroke-linejoin="round" stroke-width="1.5"/> <path d="m360.62 1126.6c1.7497-1.2867-2.214 60.427-60.912 60.696-58.77 0.2687-63.021-60.711-61.434-59.653 61.396 53.094 98.477 43.152 122.35-1.0448v0.0022z" fill="#666"/> </g> <g transform="matrix(.90499 .42542 -.42542 .90499 171.09 242.58)"> <path d="m304.02 1125.2c-1e-4 34.82-28.324 63.048-63.263 63.048s-63.263-28.227-63.263-63.048c0-34.82 28.324-63.048 63.263-63.048h0c34.94 0 63.263 28.228 63.263 63.048v0z" fill="#fff" stroke="#000" stroke-linecap="round" stroke-linejoin="round" stroke-width="1.5"/> <path d="m301.93 1125.2c1.7497-1.2867-2.214 60.427-60.912 60.696-58.77 0.2687-63.021-60.711-61.434-59.653 61.396 53.094 98.477 43.152 122.35-1.0448v0.0021z" fill="#666"/> </g> <path d="m-65.858 1321.1c-14.813 31.512-52.455 45.008-84.074 30.144-31.62-14.864-45.244-52.459-30.431-83.971s52.454-45.008 84.074-30.144 45.244 52.459 30.431 83.971z" fill="#fff" stroke="#000" stroke-linecap="round" stroke-linejoin="round" stroke-width="1.5"/> <path d="m-67.749 1320.3c2.1308-0.4202-27.711 53.744-80.949 29.017-53.298-24.758-31.208-81.752-30.221-80.121 32.974 74.168 70.765 80.949 111.17 51.103v0.0013z" fill="#666"/> <g transform="matrix(.90499 .42542 -.42542 .90499 193.71 223.48)"> <path d="m328.15 1072.6c-1e-4 34.82-28.324 63.048-63.263 63.048s-63.263-28.227-63.263-63.048 28.324-63.048 63.263-63.048h1e-4c34.939-1e-4 63.263 28.227 63.263 63.048v0z" fill="#fff" stroke="#000" stroke-linecap="round" stroke-linejoin="round" stroke-width="1.5"/> <path d="m326.06 1072.6c1.7497-1.2869-2.214 60.427-60.912 60.696-58.77 0.2687-63.021-60.71-61.434-59.653 61.396 53.094 98.477 43.152 122.35-1.0448v0.0022z" fill="#666"/> </g> <g transform="matrix(.90499 .42542 -.42542 .90499 219.17 205.81)"> <path d="m358.49 1020.1c-1e-4 34.82-28.324 63.048-63.263 63.048s-63.263-28.227-63.263-63.048 28.324-63.048 63.263-63.048h0c34.939 0 63.263 28.227 63.263 63.048v0z" fill="#fff" stroke="#000" stroke-linecap="round" stroke-linejoin="round" stroke-width="1.5"/> <path d="m356.4 1020.1c1.7497-1.2868-2.214 60.427-60.912 60.696-58.77 0.2687-63.021-60.71-61.434-59.653 61.396 53.094 98.477 43.152 122.35-1.0448v0.0022z" fill="#666"/> </g> <g transform="matrix(.90499 .42542 -.42542 .90499 131.49 176.11)"> <path d="m178.71 1040.5c-1e-4 34.82-28.324 63.048-63.263 63.048s-63.263-28.227-63.263-63.048 28.324-63.048 63.263-63.048h0c34.94-1e-4 63.263 28.227 63.263 63.048v0z" fill="#fff" stroke="#000" stroke-linecap="round" stroke-linejoin="round" stroke-width="1.5"/> <path d="m176.62 1040.5c1.7497-1.2867-2.214 60.427-60.912 60.696-58.77 0.2687-63.021-60.711-61.434-59.653 61.396 53.094 98.477 43.152 122.35-1.0448v0.0022z" fill="#666"/> </g> <g transform="matrix(.90499 .42542 -.42542 .90499 151.99 194.49)"> <path d="m230.26 1056c-1e-4 34.82-28.324 63.048-63.263 63.048s-63.263-28.227-63.263-63.048 28.324-63.048 63.263-63.048h0c34.939 0 63.263 28.227 63.263 63.048v0z" fill="#fff" stroke="#000" stroke-linecap="round" stroke-linejoin="round" stroke-width="1.5"/> <path d="m228.16 1056c1.7497-1.2867-2.214 60.427-60.912 60.696-58.77 0.2687-63.021-60.711-61.434-59.653 61.396 53.094 98.477 43.152 122.35-1.0448v0.0022z" fill="#666"/> </g> <g transform="matrix(.90499 .42542 -.42542 .90499 183.11 203.68)"> <path d="m292.94 1046.4c-1e-4 34.82-28.324 63.048-63.263 63.048s-63.263-28.227-63.263-63.048 28.324-63.048 63.263-63.048h0c34.939-1e-4 63.263 28.227 63.263 63.048v0z" fill="#fff" stroke="#000" stroke-linecap="round" stroke-linejoin="round" stroke-width="1.5"/> <path d="m290.84 1046.4c1.7497-1.2867-2.214 60.427-60.912 60.696-58.77 0.2687-63.021-60.711-61.434-59.653 61.396 53.094 98.477 43.152 122.35-1.0448v0.0022z" fill="#666"/> </g> <g transform="matrix(.90499 .42542 -.42542 .90499 198.66 181.76)"> <path d="m302.22 994.65c-1e-4 34.82-28.324 63.048-63.263 63.048s-63.263-28.227-63.263-63.048 28.324-63.048 63.263-63.048h0c34.94 0 63.263 28.227 63.263 63.048v0z" fill="#fff" stroke="#000" stroke-linecap="round" stroke-linejoin="round" stroke-width="1.5"/> <path d="m300.12 994.65c1.7497-1.2868-2.214 60.427-60.912 60.696-58.77 0.2688-63.021-60.71-61.434-59.653 61.396 53.094 98.477 43.152 122.35-1.0448v0.0022z" fill="#666"/> </g> <g transform="matrix(.90499 .42542 -.42542 .90499 240.38 197.32)"> <path d="m388.95 987.49c-1e-4 34.82-28.324 63.048-63.263 63.048s-63.263-28.227-63.263-63.048c0-34.82 28.324-63.048 63.263-63.048h0c34.939-1e-4 63.263 28.227 63.263 63.048v0z" fill="#fff" stroke="#000" stroke-linecap="round" stroke-linejoin="round" stroke-width="1.5"/> <path d="m386.85 987.49c1.7497-1.2868-2.214 60.427-60.912 60.696-58.77 0.2687-63.021-60.711-61.434-59.653 61.396 53.094 98.477 43.152 122.35-1.0448v0.0021z" fill="#666"/> </g> <g transform="matrix(.90499 .42542 -.42542 .90499 223.41 172.57)"> <path d="m338.36 957.82c-1e-4 34.82-28.324 63.048-63.263 63.048s-63.263-28.227-63.263-63.048c0-34.82 28.324-63.048 63.263-63.048h0c34.939 0 63.263 28.228 63.263 63.048v0z" fill="#fff" stroke="#000" stroke-linecap="round" stroke-linejoin="round" stroke-width="1.5"/> <path d="m336.26 957.82c1.7497-1.2868-2.214 60.427-60.912 60.696-58.77 0.2687-63.021-60.71-61.435-59.653 61.396 53.094 98.477 43.152 122.35-1.0448v0.0022z" fill="#666"/> </g> <g transform="matrix(.90499 .42542 -.42542 .90499 198.66 150.65)"> <path d="m276.35 939.63c-1e-4 34.82-28.324 63.048-63.263 63.048s-63.263-28.227-63.263-63.048c0-34.82 28.324-63.048 63.263-63.048h0c34.94-1e-4 63.263 28.227 63.263 63.048v0z" fill="#fff" stroke="#000" stroke-linecap="round" stroke-linejoin="round" stroke-width="1.5"/> <path d="m274.26 939.63c1.7497-1.2868-2.214 60.427-60.912 60.696-58.77 0.2687-63.021-60.71-61.434-59.653 61.396 53.094 98.477 43.152 122.35-1.0448v0.0022z" fill="#666"/> </g> <g transform="matrix(.90499 .42542 -.42542 .90499 152.7 144.29)"> <path d="m189.77 966.59c-1e-4 34.82-28.324 63.048-63.263 63.048s-63.263-28.227-63.263-63.048 28.324-63.048 63.263-63.048h0c34.939 0 63.263 28.228 63.263 63.048v0z" fill="#fff" stroke="#000" stroke-linecap="round" stroke-linejoin="round" stroke-width="1.5"/> <path d="m187.68 966.59c1.7497-1.2868-2.214 60.427-60.912 60.696-58.77 0.2687-63.021-60.71-61.434-59.653 61.396 53.094 98.477 43.152 122.35-1.0448v0.0022z" fill="#666"/> </g> <path d="m-96.614 1072.4s-4.4609-120.28 89.215-160.37c93.676-40.092 111.52-26.728 169.51 17.819s93.676 22.273 93.676 22.273" fill="none" stroke="#000" stroke-width="3"/> <g transform="matrix(.90499 .42542 -.42542 .90499 180.28 134.39)"> <path d="m230.32 926.15c-1e-4 34.82-28.324 63.048-63.263 63.048s-63.263-28.227-63.263-63.048c0-34.82 28.324-63.048 63.263-63.048h0c34.939 0 63.263 28.227 63.263 63.048v0z" fill="#fff" stroke="#000" stroke-linecap="round" stroke-linejoin="round" stroke-width="1.5"/> <path d="m228.23 926.15c1.7497-1.2868-2.214 60.427-60.912 60.696-58.77 0.2687-63.021-60.711-61.434-59.653 61.396 53.094 98.477 43.152 122.35-1.0448v0.0022z" fill="#666"/> </g> <g transform="matrix(.90499 .42542 -.42542 .90499 167.55 161.97)"> <path d="m230.74 985.52c-1e-4 34.82-28.324 63.048-63.263 63.048s-63.263-28.227-63.263-63.048c0-34.82 28.324-63.048 63.263-63.048h0c34.94 0 63.263 28.228 63.263 63.048v0z" fill="#fff" stroke="#000" stroke-linecap="round" stroke-linejoin="round" stroke-width="1.5"/> <path d="m228.64 985.52c1.7497-1.2868-2.214 60.427-60.912 60.696-58.77 0.2687-63.021-60.711-61.434-59.653 61.396 53.094 98.477 43.152 122.35-1.0448v0.0021z" fill="#666"/> </g> <g stroke="#000"> <path d="m-94.85 800.57c9.9059-16.404 2.9508-54.888 2.9508-54.888s-17.682 6.1765-31.686 15.516c-10.962-12.873-26.699-23.72-26.699-23.72s-8.2517 16.897-11.655 33.4c-16.87-1.246-35.716 2.3237-35.716 2.3237s6.0132 17.72 15.204 31.719c-12.897 11.111-23.812 27.005-23.812 27.005s16.756 8.1626 33.158 11.456c-1.3685 16.96 2.0415 35.867 2.0415 35.867s40.629-14.186 47.487-32.079c4.239-11.061 1.4355-28.245-8.5167-34.268-0.0375-0.1919-0.0801-0.3744-0.1247-0.5626 0.0963-0.1655 0.2222-0.3163 0.3193-0.4825 0.1867-0.0444 0.3735-0.0797 0.5599-0.1298 0.2239 0.1508 0.4553 0.2982 0.6903 0.4363 10.123 5.9075 26.635-0.1389 34.224-9.3364 0.5736-0.6918 1.1002-1.4455 1.5861-2.253l-0.0099-0.0048z" fill="#fff" stroke-linecap="round" stroke-linejoin="round" stroke-width="1.5"/> <path d="m-237.66 898.96c-9.6202-18.112-48.781-32.862-48.781-32.862s-4.044 19.638-3.1618 37.634c-17.843 2.9995-36.449 11.499-36.449 11.499s10.981 16.863 24.265 29.056c-10.414 14.815-17.491 34.091-17.491 34.091s19.574 4.2087 37.477 3.4554c3.1164 17.953 11.714 36.712 11.714 36.712s16.702-10.909 28.737-24.169c14.821 10.574 34.056 17.827 34.056 17.827s9.2976-45.12-3.3648-61.248c-7.8275-9.9705-25.146-16.834-36.145-11-0.1918-0.0677-0.3885-0.1331-0.5846-0.1951-0.0981-0.1774-0.1672-0.3787-0.2677-0.5579 0.0641-0.1951 0.1229-0.392 0.1846-0.5872 0.2656-0.1212 0.5242-0.2543 0.7799-0.3964 10.986-6.0557 14.509-24.545 10.231-36.573-0.3199-0.907-0.7229-1.8047-1.1971-2.6948l-4e-3 0.0097z" fill="#fff" stroke-linecap="round" stroke-linejoin="round" stroke-width="1.5"/> <path d="m-56.117 942.39s-35.687-17.819-84.757-22.274c-49.07-4.4543-107.06 17.819-107.06 17.819" fill="none" stroke-width="2"/> <path d="m-118.57 919.93s26.765 4.4551 40.148-40.092c13.383-44.547-49.07-66.82-49.07-66.82" fill="none" stroke-width="2"/> <path d="m-250.13 918.75c-5.2326-9.9113-26.533-17.982-26.533-17.982s-2.1996 10.746-1.7198 20.594c-9.7053 1.6413-19.826 6.2922-19.826 6.2922s5.9727 9.2275 13.199 15.9c-5.6646 8.1067-9.5136 18.654-9.5136 18.654s10.647 2.3031 20.385 1.8909c1.695 9.8237 6.3715 20.089 6.3715 20.089s9.0846-5.9698 15.631-13.225c8.0615 5.7859 18.524 9.7552 18.524 9.7552s5.0571-24.69-1.8302-33.515c-4.2576-5.4559-13.678-9.2117-19.661-6.0192-0.1043-0.0353-0.2113-0.0739-0.318-0.1064-0.0535-0.0974-0.091-0.2067-0.1457-0.3055 0.0349-0.1064 0.0671-0.2156 0.1004-0.321 0.1445-0.0649 0.2851-0.1389 0.4242-0.2156 5.9756-3.3137 7.8919-13.431 5.565-20.013-0.174-0.4959-0.3932-0.9875-0.6511-1.4747l-0.0019 0.0036z" fill="#ccc" stroke-linecap="round" stroke-linejoin="round" stroke-width="1.5"/> <path d="m-119.08 804.12c5.3815-8.9607 1.603-29.981 1.603-29.981s-9.6058 3.3738-17.213 8.476c-5.955-7.0319-14.504-12.956-14.504-12.956s-4.4828 9.2297-6.3313 18.245c-9.1649-0.6805-19.403 1.2691-19.403 1.2691s3.2667 9.6794 8.2594 17.326c-7.0064 6.0698-12.936 14.752-12.936 14.752s9.1026 4.4587 18.012 6.2576c-0.7435 9.2643 1.109 19.592 1.109 19.592s22.072-7.7493 25.797-17.523c2.3028-6.042 0.7798-15.428-4.6267-18.718-0.0207-0.1035-0.0437-0.2038-0.0679-0.3073 0.0523-0.0916 0.1208-0.1713 0.1734-0.2629 0.1013-0.0296 0.203-0.0444 0.3042-0.071 0.1217 0.0826 0.2473 0.1627 0.375 0.2394 5.4994 3.2271 14.469-0.0739 18.592-5.0999 0.3116-0.378 0.5977-0.7899 0.8617-1.2309l-0.0059-0.0051z" fill="#ccc" stroke-linecap="round" stroke-linejoin="round" stroke-width="1.5"/> </g> </g> </svg>